<svg width="1366" height="768" viewBox="0 0 1366 768" fill="none" xmlns="http://www.w3.org/2000/svg">
<g clip-path="url(#clip0_103_2083)">
<rect width="1366" height="768" fill="white"/>
<path d="M868.5 575C740.1 623.8 698 758.333 693 819.5H1462V159C1181.5 159 1269.14 408.547 1137.5 495C1070.5 539 1029 514 868.5 575Z" fill="#B4B4B4" fill-opacity="0.4"/>
<path d="M889.5 575C761.1 623.8 719 758.333 714 819.5H1483V159C1202.5 159 1290.14 408.547 1158.5 495C1091.5 539 1050 514 889.5 575Z" fill="url(#paint0_linear_103_2083)"/>
<path fill-rule="evenodd" clip-rule="evenodd" d="M1443.04 374.645C1552.55 366.484 1676.86 346.752 1756.51 420.327C1837 494.687 1832.75 617.72 1822.55 725.243C1813.43 821.368 1772.89 909.585 1703.53 978.629C1633.25 1048.59 1543.4 1096.92 1443.04 1103.03C1335.96 1109.56 1226.4 1083.45 1147.74 1012.48C1066.45 939.112 1019.2 832.993 1024.39 725.243C1029.38 621.618 1093.35 531.404 1174.17 463.719C1248.76 401.256 1344.9 381.957 1443.04 374.645Z" fill="url(#paint1_radial_103_2083)"/>
<path fill-rule="evenodd" clip-rule="evenodd" d="M856.176 714.192C878.236 707.562 899.89 717.625 918.444 729.11C936.935 740.557 954.932 755.189 956.324 776.186C957.728 797.376 942.599 816.366 925.206 831.131C908.106 845.647 886.701 857.031 864.503 854.133C842.669 851.283 827.555 834.906 817.425 817.061C807.694 799.92 804.584 780.162 811.735 761.181C819.453 740.693 833.935 720.876 856.176 714.192Z" fill="url(#paint2_linear_103_2083)" fill-opacity="0.2"/>
<path fill-rule="evenodd" clip-rule="evenodd" d="M1087.33 754.001C1103.4 754.148 1115.75 766.279 1125.74 778.744C1135.7 791.167 1144.67 805.783 1141.26 821.283C1137.83 836.925 1123.83 847.271 1109.19 854.054C1094.8 860.723 1078.18 864.161 1063.99 857.091C1050.03 850.138 1043.34 834.905 1040.27 819.727C1037.33 805.149 1039.33 790.16 1048.01 778.033C1057.39 764.943 1071.13 753.853 1087.33 754.001Z" fill="url(#paint3_linear_103_2083)" fill-opacity="0.2"/>
<path fill-rule="evenodd" clip-rule="evenodd" d="M1307.24 279.001C1313.63 279.06 1318.55 283.935 1322.53 288.944C1326.49 293.936 1330.06 299.81 1328.71 306.039C1327.34 312.325 1321.77 316.483 1315.94 319.209C1310.21 321.889 1303.6 323.27 1297.95 320.429C1292.39 317.635 1289.73 311.513 1288.51 305.414C1287.33 299.555 1288.13 293.532 1291.59 288.658C1295.32 283.398 1300.79 278.941 1307.24 279.001Z" fill="url(#paint4_linear_103_2083)" fill-opacity="0.2"/>
<path fill-rule="evenodd" clip-rule="evenodd" d="M1322.24 680.001C1328.63 680.06 1333.55 684.935 1337.53 689.944C1341.49 694.936 1345.06 700.81 1343.71 707.039C1342.34 713.325 1336.77 717.483 1330.94 720.209C1325.21 722.889 1318.6 724.27 1312.95 721.429C1307.39 718.635 1304.73 712.513 1303.51 706.414C1302.33 700.555 1303.13 694.532 1306.59 689.658C1310.32 684.398 1315.79 679.941 1322.24 680.001Z" fill="url(#paint5_linear_103_2083)" fill-opacity="0.2"/>
<path fill-rule="evenodd" clip-rule="evenodd" d="M1207.96 531.581C1206.54 527.224 1208.73 522.774 1211.23 518.931C1213.71 515.101 1216.89 511.336 1221.43 510.837C1226.01 510.334 1230.1 513.171 1233.28 516.506C1236.41 519.786 1238.85 523.962 1238.21 528.446C1237.58 532.857 1234.03 536.061 1230.17 538.281C1226.46 540.412 1222.18 541.243 1218.09 540.007C1213.66 538.673 1209.39 535.974 1207.96 531.581Z" fill="url(#paint6_linear_103_2083)" fill-opacity="0.2"/>
<path fill-rule="evenodd" clip-rule="evenodd" d="M938.961 645.581C937.543 641.224 939.733 636.774 942.228 632.931C944.715 629.101 947.89 625.336 952.429 624.837C957.01 624.334 961.104 627.171 964.283 630.506C967.409 633.786 969.855 637.962 969.213 642.446C968.582 646.857 965.032 650.061 961.168 652.281C957.457 654.412 953.184 655.243 949.087 654.007C944.664 652.673 940.391 649.974 938.961 645.581Z" fill="url(#paint7_linear_103_2083)" fill-opacity="0.2"/>
<path fill-rule="evenodd" clip-rule="evenodd" d="M1385.99 437.048C1396.09 447.457 1396.75 462.482 1395.71 476.187C1394.68 489.846 1391.72 504.152 1380.39 511.023C1368.95 517.956 1353.94 515.008 1340.64 509.569C1327.56 504.221 1314.99 495.558 1310.17 482.308C1305.43 469.275 1310.2 456.073 1317.23 445.232C1323.99 434.819 1334.14 427.348 1346.82 425.838C1360.51 424.208 1375.79 426.554 1385.99 437.048Z" fill="url(#paint8_linear_103_2083)" fill-opacity="0.2"/>
<path fill-rule="evenodd" clip-rule="evenodd" d="M1113.68 606.608C1127.58 602.432 1141.21 608.77 1152.9 616.004C1164.55 623.214 1175.88 632.43 1176.76 645.655C1177.64 659.001 1168.12 670.963 1157.16 680.263C1146.39 689.405 1132.91 696.576 1118.93 694.75C1105.17 692.955 1095.65 682.64 1089.27 671.4C1083.14 660.604 1081.19 648.159 1085.69 636.204C1090.55 623.3 1099.67 610.818 1113.68 606.608Z" fill="url(#paint9_linear_103_2083)" fill-opacity="0.2"/>
</g>
<defs>
<linearGradient id="paint0_linear_103_2083" x1="1098.5" y1="159" x2="1098.5" y2="819.5" gradientUnits="userSpaceOnUse">
<stop stop-color="#6DE1D8"/>
<stop offset="0.404742" stop-color="#60C0CE"/>
<stop offset="0.866892" stop-color="#4C89BC"/>
<stop offset="1" stop-color="#426EB4"/>
</linearGradient>
<radialGradient id="paint1_radial_103_2083" cx="0" cy="0" r="1" gradientUnits="userSpaceOnUse" gradientTransform="translate(1426 735) rotate(90) scale(369 402)">
<stop stop-color="#51BBB3"/>
<stop offset="0.770833" stop-color="#51BBB3" stop-opacity="0.46875"/>
<stop offset="1" stop-color="#51BBB3" stop-opacity="0"/>
</radialGradient>
<linearGradient id="paint2_linear_103_2083" x1="860.521" y1="712.844" x2="902.33" y2="847.819" gradientUnits="userSpaceOnUse">
<stop offset="0.463542" stop-color="white"/>
<stop offset="1" stop-color="white" stop-opacity="0"/>
</linearGradient>
<linearGradient id="paint3_linear_103_2083" x1="1090.5" y1="754" x2="1090.5" y2="861" gradientUnits="userSpaceOnUse">
<stop offset="0.463542" stop-color="white"/>
<stop offset="1" stop-color="white" stop-opacity="0"/>
</linearGradient>
<linearGradient id="paint4_linear_103_2083" x1="1308.5" y1="279" x2="1308.5" y2="322" gradientUnits="userSpaceOnUse">
<stop offset="0.463542" stop-color="white"/>
<stop offset="1" stop-color="white" stop-opacity="0"/>
</linearGradient>
<linearGradient id="paint5_linear_103_2083" x1="1323.5" y1="680" x2="1323.5" y2="723" gradientUnits="userSpaceOnUse">
<stop offset="0.463542" stop-color="white"/>
<stop offset="1" stop-color="white" stop-opacity="0"/>
</linearGradient>
<linearGradient id="paint6_linear_103_2083" x1="1207.67" y1="530.724" x2="1236.87" y2="520.922" gradientUnits="userSpaceOnUse">
<stop offset="0.463542" stop-color="white"/>
<stop offset="1" stop-color="white" stop-opacity="0"/>
</linearGradient>
<linearGradient id="paint7_linear_103_2083" x1="938.673" y1="644.724" x2="967.875" y2="634.922" gradientUnits="userSpaceOnUse">
<stop offset="0.463542" stop-color="white"/>
<stop offset="1" stop-color="white" stop-opacity="0"/>
</linearGradient>
<linearGradient id="paint8_linear_103_2083" x1="1388" y1="439.086" x2="1324.67" y2="501.623" gradientUnits="userSpaceOnUse">
<stop offset="0.463542" stop-color="white"/>
<stop offset="1" stop-color="white" stop-opacity="0"/>
</linearGradient>
<linearGradient id="paint9_linear_103_2083" x1="1116.42" y1="605.759" x2="1142.75" y2="690.774" gradientUnits="userSpaceOnUse">
<stop offset="0.463542" stop-color="white"/>
<stop offset="1" stop-color="white" stop-opacity="0"/>
</linearGradient>
<clipPath id="clip0_103_2083">
<rect width="1366" height="768" fill="white"/>
</clipPath>
</defs>
</svg>
